<svg xmlns="http://www.w3.org/2000/svg" width="160.082" height="71.001" viewBox="0 0 160.082 71.001">
  <defs>
    <style>
      .cls-1 {
        fill: #fff;
      }
    </style>
  </defs>
  <path id="Subtraction_51" data-name="Subtraction 51" class="cls-1" d="M60.187,571.454l-38.267-.668c-1.605-.892-3.163-1.85-4.63-2.848a50.293,50.293,0,0,1-7.341-6.045,38.948,38.948,0,0,1-5.5-6.887c-.088-.142-.185-.3-.287-.472L50.92,566.558a65.635,65.635,0,0,0,9.267,4.894ZM43.755,561.109,2.066,550.391a29.258,29.258,0,0,1-1.042-2.948,27.545,27.545,0,0,1-.866-4.078l36.515,9.388a40.507,40.507,0,0,0,7.084,8.354Zm-9.6-13.217h0l-34.226-8.8a26.865,26.865,0,0,1,.434-4.1l32.344,8.315a28.556,28.556,0,0,0,1.45,4.584Zm118.352-.609a16.114,16.114,0,0,1-2.959-.264,8.961,8.961,0,0,1-2.433-.791v-4.218a8.176,8.176,0,0,0,2.492,1.444,8.054,8.054,0,0,0,2.715.481,6.064,6.064,0,0,0,1.4-.145,3.282,3.282,0,0,0,1-.4,1.757,1.757,0,0,0,.6-.607,1.512,1.512,0,0,0,.2-.758,1.641,1.641,0,0,0-.317-.988,3.4,3.4,0,0,0-.863-.8,9.086,9.086,0,0,0-1.3-.712c-.511-.233-1.057-.468-1.622-.7a8.317,8.317,0,0,1-3.3-2.255,4.945,4.945,0,0,1-1.088-3.217,5.148,5.148,0,0,1,.593-2.537,5.07,5.07,0,0,1,1.616-1.747,7.267,7.267,0,0,1,2.366-1.009,12.224,12.224,0,0,1,2.848-.323,17.193,17.193,0,0,1,2.617.178,10.291,10.291,0,0,1,2.1.547V532.4a6.394,6.394,0,0,0-1.034-.581A8.308,8.308,0,0,0,157,531.4a8.794,8.794,0,0,0-1.18-.244,8.336,8.336,0,0,0-1.114-.079,5.818,5.818,0,0,0-1.318.139,3.379,3.379,0,0,0-1,.389,1.939,1.939,0,0,0-.633.6,1.43,1.43,0,0,0-.224.785,1.512,1.512,0,0,0,.25.851,2.9,2.9,0,0,0,.712.712,7.591,7.591,0,0,0,1.12.659c.44.215.941.44,1.489.666a16.667,16.667,0,0,1,2.038,1.009,7.27,7.27,0,0,1,1.549,1.206,4.715,4.715,0,0,1,.988,1.535,6.135,6.135,0,0,1-.257,4.667,4.91,4.91,0,0,1-1.628,1.741,7.1,7.1,0,0,1-2.393.956A13.948,13.948,0,0,1,152.512,547.284Zm-17.784-.328h-4.259V528.049h4.259v8.938h.066c.108-.252.286-.607.527-1.054l5.221-7.884h5.075l-6.592,9.017,7.157,9.887-5.377,0-5.511-8.213a7.728,7.728,0,0,1-.5-1.042h-.066v9.256Zm-42.873,0H87.6V528.049h6.75a8.622,8.622,0,0,1,5.162,1.285,4.525,4.525,0,0,1,1.721,3.856,5.348,5.348,0,0,1-.3,1.826,5.107,5.107,0,0,1-.857,1.509,5.47,5.47,0,0,1-1.338,1.16,6.94,6.94,0,0,1-1.747.764v.053a2.723,2.723,0,0,1,.817.428,5.861,5.861,0,0,1,.765.692,9.76,9.76,0,0,1,.706.85c.226.305.432.6.613.89l3.337,5.221,9.372-18.536h14.423v3.467H120.37v4.206h6.184v3.454H120.37V543.5h7.067v3.453H116.126v-4.206h-6.21l-1.938,4.206H98.565l-2.94-4.865c-.22-.37-.433-.7-.633-.988a5.445,5.445,0,0,0-.613-.745,2.447,2.447,0,0,0-.646-.474,1.647,1.647,0,0,0-.732-.165H91.855v7.238Zm23.243-15.44-3.718,7.963h4.747v-7.963Zm-23.243-.276v5.26H93.7a3.075,3.075,0,0,0,2.2-.79,2.652,2.652,0,0,0,.843-1.991c0-1.645-1-2.479-2.965-2.479H91.855Zm-12.2,15.715H75.389V531.516H70.023v-3.467H85.052v3.467H79.66v15.438ZM32.1,538.934h0L1.4,531.042a30.265,30.265,0,0,1,2.414-5.269l28.606,7.355a26.6,26.6,0,0,0-.358,3.909c-.011.618,0,1.256.035,1.9Zm3.9-15.566h0l-24.992-6.425a50.588,50.588,0,0,1,7.266-5.522,63.092,63.092,0,0,1,9.108-4.722,75.479,75.479,0,0,1,10.421-3.5,85.649,85.649,0,0,1,11.486-2.129,92.673,92.673,0,0,1,10.665-.612c.543,0,1.094,0,1.636.014,2.68.047,5.377.209,8.014.483C54.167,505.014,41.919,513.184,36.005,523.368Z" transform="translate(0.068 -500.453)"/>
</svg>
