<svg xmlns="http://www.w3.org/2000/svg" width="133.468" height="71.001" viewBox="0 0 133.468 71.001">
  <defs>
    <style>
      .cls-1 {
        fill: #fff;
      }
    </style>
  </defs>
  <path id="Subtraction_51" data-name="Subtraction 51" class="cls-1" d="M60.187,571.454l-38.267-.668c-1.606-.892-3.163-1.85-4.63-2.848a50.29,50.29,0,0,1-7.341-6.044,38.952,38.952,0,0,1-5.5-6.887c-.087-.14-.183-.3-.287-.472L50.92,566.558a65.628,65.628,0,0,0,9.267,4.894ZM43.755,561.109,2.066,550.391a29.259,29.259,0,0,1-1.042-2.948,27.541,27.541,0,0,1-.866-4.078l36.515,9.388a40.508,40.508,0,0,0,7.084,8.354Zm-9.6-13.217h0l-34.226-8.8a26.868,26.868,0,0,1,.434-4.1l32.344,8.315a28.557,28.557,0,0,0,1.45,4.584Zm91.738-.9a16.044,16.044,0,0,1-2.96-.264,8.944,8.944,0,0,1-2.432-.791v-4.218a8.1,8.1,0,0,0,5.207,1.925,6.068,6.068,0,0,0,1.4-.145,3.33,3.33,0,0,0,1-.4,1.77,1.77,0,0,0,.6-.607,1.525,1.525,0,0,0,.2-.758,1.647,1.647,0,0,0-.316-.989,3.437,3.437,0,0,0-.864-.8,9.079,9.079,0,0,0-1.3-.712c-.5-.227-1.044-.462-1.621-.7a8.317,8.317,0,0,1-3.3-2.254,4.945,4.945,0,0,1-1.087-3.217,5.15,5.15,0,0,1,.593-2.538,5.065,5.065,0,0,1,1.615-1.747A7.269,7.269,0,0,1,125,527.767a12.18,12.18,0,0,1,2.848-.323,17.322,17.322,0,0,1,2.617.177,10.387,10.387,0,0,1,2.1.547v3.942a6.371,6.371,0,0,0-1.035-.58,8.169,8.169,0,0,0-1.154-.416,8.878,8.878,0,0,0-1.18-.244,8.455,8.455,0,0,0-1.113-.079,5.857,5.857,0,0,0-1.318.139,3.427,3.427,0,0,0-1,.389,1.953,1.953,0,0,0-.633.6,1.428,1.428,0,0,0-.224.784,1.5,1.5,0,0,0,.251.85,2.868,2.868,0,0,0,.712.712,7.591,7.591,0,0,0,1.121.66c.444.217.945.441,1.49.665a16.789,16.789,0,0,1,2.037,1.009,7.278,7.278,0,0,1,1.549,1.206,4.716,4.716,0,0,1,.989,1.536,6.13,6.13,0,0,1-.257,4.667,4.889,4.889,0,0,1-1.628,1.74,7.09,7.09,0,0,1-2.392.956A13.893,13.893,0,0,1,125.9,546.995Zm-17.785-.328h-4.258V527.76h4.258V536.7h.066c.109-.251.286-.606.527-1.055l5.221-7.884H119l-6.592,9.018,7.157,9.886-5.378,0-5.511-8.213a7.9,7.9,0,0,1-.5-1.041h-.066v9.255Zm-42.873,0H60.982V527.76h6.75a8.62,8.62,0,0,1,5.161,1.286,4.525,4.525,0,0,1,1.72,3.856,5.361,5.361,0,0,1-.3,1.826,5.089,5.089,0,0,1-.858,1.509,5.446,5.446,0,0,1-1.337,1.16,6.907,6.907,0,0,1-1.747.765v.053a2.706,2.706,0,0,1,.817.428,5.8,5.8,0,0,1,.764.692,9.724,9.724,0,0,1,.706.85c.222.3.428.6.613.89l3.337,5.221,9.372-18.536H100.4v3.468H93.757v4.206H99.94v3.454H93.757v4.324h7.067v3.453H89.511V542.46H83.3l-1.939,4.206H71.951L69.011,541.8c-.214-.359-.426-.692-.633-.989a5.558,5.558,0,0,0-.613-.744,2.451,2.451,0,0,0-.646-.475,1.648,1.648,0,0,0-.732-.165H65.24v7.238Zm23.243-15.439-3.718,7.962h4.746v-7.962Zm-23.243-.277v5.26h1.846a3.076,3.076,0,0,0,2.2-.791,2.652,2.652,0,0,0,.843-1.991c0-1.645-1-2.479-2.966-2.479ZM53.046,546.665H48.775V531.228H43.409V527.76H58.438v3.468H53.046v15.437ZM32.1,538.934h0L1.4,531.042a30.265,30.265,0,0,1,2.414-5.269l28.607,7.355a26.6,26.6,0,0,0-.358,3.909c-.011.618,0,1.257.035,1.9Zm3.9-15.566h0l-24.992-6.425a50.59,50.59,0,0,1,7.266-5.522,63.089,63.089,0,0,1,9.108-4.722,75.48,75.48,0,0,1,10.421-3.5,85.652,85.652,0,0,1,11.486-2.129,92.668,92.668,0,0,1,10.665-.612c.542,0,1.093,0,1.636.014,2.68.047,5.377.209,8.014.483C54.167,505.014,41.919,513.184,36.005,523.368Z" transform="translate(0.068 -500.453)"/>
</svg>
