<svg xmlns="http://www.w3.org/2000/svg" width="74.026" height="35.5" viewBox="0 0 74.026 35.5">
  <path id="Subtraction_39" data-name="Subtraction 39" d="M30.4,535.5H11.269c-.815-.434-1.6-.9-2.339-1.382a25.125,25.125,0,0,1-3.723-2.958,19.457,19.457,0,0,1-2.812-3.395l-.108-.17-.04-.063,23.483,5.6A32.836,32.836,0,0,0,30.4,535.5Zm40.011-.341a7.759,7.759,0,0,1-1.426-.127,4.331,4.331,0,0,1-1.171-.381V532.62a3.916,3.916,0,0,0,1.2.695,3.87,3.87,0,0,0,1.308.232,2.9,2.9,0,0,0,.676-.07,1.588,1.588,0,0,0,.482-.193.846.846,0,0,0,.289-.292.73.73,0,0,0,.1-.365.791.791,0,0,0-.152-.476,1.662,1.662,0,0,0-.416-.387,4.312,4.312,0,0,0-.625-.343c-.247-.112-.509-.225-.78-.337A4,4,0,0,1,68.3,530a2.38,2.38,0,0,1-.524-1.549,2.48,2.48,0,0,1,.285-1.221,2.447,2.447,0,0,1,.778-.841,3.538,3.538,0,0,1,1.139-.486,5.9,5.9,0,0,1,1.372-.155,8.245,8.245,0,0,1,1.26.086,4.953,4.953,0,0,1,1.012.264v1.9a3.116,3.116,0,0,0-.5-.279,4.064,4.064,0,0,0-.555-.2A4.37,4.37,0,0,0,72,527.4a4.089,4.089,0,0,0-.536-.038,2.835,2.835,0,0,0-.635.067,1.669,1.669,0,0,0-.482.187.953.953,0,0,0-.3.289.69.69,0,0,0-.108.378.727.727,0,0,0,.121.409,1.382,1.382,0,0,0,.343.343,3.674,3.674,0,0,0,.539.317c.212.1.454.212.717.32a8.14,8.14,0,0,1,.981.486,3.531,3.531,0,0,1,.746.58,2.3,2.3,0,0,1,.476.74,2.632,2.632,0,0,1,.165.968,2.6,2.6,0,0,1-.289,1.279,2.36,2.36,0,0,1-.784.838,3.415,3.415,0,0,1-1.152.46A6.718,6.718,0,0,1,70.414,535.159ZM61.851,535H59.8v-9.1h2.05v4.3h.032c.051-.12.137-.291.254-.508l2.514-3.8h2.444l-3.173,4.342L67.366,535l-2.588,0-2.653-3.955a3.722,3.722,0,0,1-.241-.5h-.032V535Zm-20.642,0h-2.05v-9.1h3.25c2.2,0,3.314.833,3.314,2.476a2.571,2.571,0,0,1-.146.878,2.443,2.443,0,0,1-.413.727,2.616,2.616,0,0,1-.644.559,3.334,3.334,0,0,1-.841.368v.025a1.308,1.308,0,0,1,.393.206,2.806,2.806,0,0,1,.368.333,4.816,4.816,0,0,1,.34.409c.118.161.214.3.294.428l1.607,2.514,4.513-8.924h6.944v1.669h-3.2v2.025h2.977v1.663H54.939v2.082h3.4V535H52.895v-2.025h-2.99L48.972,535H44.439l-1.416-2.343c-.1-.171-.2-.331-.3-.476a2.654,2.654,0,0,0-.3-.358,1.184,1.184,0,0,0-.311-.229.79.79,0,0,0-.352-.079h-.553V535ZM52.4,527.567,50.61,531.4h2.285v-3.834Zm-11.191-.133v2.533H42.1a1.479,1.479,0,0,0,1.059-.381,1.277,1.277,0,0,0,.407-.958c0-.792-.481-1.193-1.428-1.193ZM35.337,535H33.28v-7.433H30.7V525.9h7.236v1.669h-2.6V535ZM22.1,530.472,1.166,525.478a14.552,14.552,0,0,1-.547-1.464,13.715,13.715,0,0,1-.468-2.031l18.337,4.375A20.215,20.215,0,0,0,22.1,530.47Zm-4.91-6.523h0L0,519.847a13.461,13.461,0,0,1,.181-2.054l16.242,3.875a14.183,14.183,0,0,0,.765,2.278Zm-1.107-4.461h0L.666,515.811a15.056,15.056,0,0,1,1.161-2.656l14.365,3.427a13.321,13.321,0,0,0-.145,1.957c0,.323.011.642.034.947Zm1.816-7.816h0L5.346,508.678a25.273,25.273,0,0,1,3.584-2.824,31.612,31.612,0,0,1,4.513-2.441,37.73,37.73,0,0,1,5.179-1.842,42.818,42.818,0,0,1,5.723-1.165A46.426,46.426,0,0,1,30.489,500c1.341,0,2.69.058,4.01.171-7.683,2.166-13.735,6.357-16.6,11.5Z" transform="translate(0 -500)"/>
</svg>
