<svg xmlns="http://www.w3.org/2000/svg" width="151.4" height="71.329" viewBox="0 0 151.4 71.329">
  <path id="Subtraction_31" data-name="Subtraction 31" d="M143.9,571.33a16.12,16.12,0,0,1-2.96-.264,8.944,8.944,0,0,1-2.432-.791v-4.218A8.142,8.142,0,0,0,141,567.5a8.057,8.057,0,0,0,2.716.481,6.023,6.023,0,0,0,1.4-.145,3.284,3.284,0,0,0,1-.4,1.767,1.767,0,0,0,.6-.606,1.526,1.526,0,0,0,.2-.759,1.646,1.646,0,0,0-.316-.988,3.424,3.424,0,0,0-.864-.8,9.084,9.084,0,0,0-1.3-.712c-.5-.229-1.046-.463-1.621-.7a8.323,8.323,0,0,1-3.3-2.255,4.945,4.945,0,0,1-1.087-3.217,5.151,5.151,0,0,1,.593-2.538,5.065,5.065,0,0,1,1.615-1.747A7.292,7.292,0,0,1,143,552.1a12.223,12.223,0,0,1,2.848-.323,17.19,17.19,0,0,1,2.617.178,10.377,10.377,0,0,1,2.1.547v3.942a6.449,6.449,0,0,0-1.035-.581,8.276,8.276,0,0,0-1.154-.415,8.887,8.887,0,0,0-1.18-.244,8.309,8.309,0,0,0-1.113-.079,5.809,5.809,0,0,0-1.319.139,3.426,3.426,0,0,0-1,.389,1.952,1.952,0,0,0-.633.6,1.424,1.424,0,0,0-.224.784,1.5,1.5,0,0,0,.251.851,2.876,2.876,0,0,0,.712.712,7.5,7.5,0,0,0,1.12.659c.434.213.921.431,1.49.666a16.673,16.673,0,0,1,2.037,1.009,7.241,7.241,0,0,1,1.549,1.206,4.714,4.714,0,0,1,.989,1.536,6.128,6.128,0,0,1-.257,4.667,4.885,4.885,0,0,1-1.628,1.741,7.092,7.092,0,0,1-2.392.956A13.888,13.888,0,0,1,143.9,571.33ZM126.113,571h-4.258V552.1h4.258v8.939h.066c.106-.247.284-.6.527-1.055l5.221-7.884H137l-6.592,9.018L137.569,571l-5.378,0-5.511-8.213a7.976,7.976,0,0,1-.5-1.041h-.066V571ZM83.24,571H78.982V552.1h6.75a8.621,8.621,0,0,1,5.161,1.285,4.525,4.525,0,0,1,1.72,3.856,5.361,5.361,0,0,1-.3,1.826,5.09,5.09,0,0,1-.858,1.509,5.447,5.447,0,0,1-1.337,1.16,6.939,6.939,0,0,1-1.747.765v.052a2.749,2.749,0,0,1,.817.428,5.861,5.861,0,0,1,.764.692,9.608,9.608,0,0,1,.706.85c.222.3.428.6.613.89l3.337,5.221,9.372-18.536H118.4v3.468h-6.645v4.2h6.183v3.454h-6.183v4.325h7.067V571H107.511v-4.206H101.3L99.364,571H89.951l-2.939-4.865c-.214-.36-.427-.693-.633-.989a5.627,5.627,0,0,0-.613-.745,2.467,2.467,0,0,0-.646-.474,1.647,1.647,0,0,0-.732-.165H83.24V571Zm23.243-15.439-3.718,7.962h4.746v-7.962Zm-23.243-.277v5.261h1.846a3.076,3.076,0,0,0,2.2-.791,2.652,2.652,0,0,0,.843-1.991c0-1.645-1-2.479-2.966-2.479ZM71.046,571H66.775V555.563H61.409V552.1H76.438v3.468H71.046V571Zm-10.233,0H22.538c-1.625-.866-3.2-1.8-4.679-2.767a50.307,50.307,0,0,1-7.446-5.915,38.943,38.943,0,0,1-5.622-6.79c-.105-.163-.2-.315-.3-.466l46.965,11.2A65.492,65.492,0,0,0,60.813,571ZM44.2,560.944,2.33,550.955a29.2,29.2,0,0,1-1.093-2.929A27.467,27.467,0,0,1,.3,543.964l36.673,8.749a40.52,40.52,0,0,0,7.229,8.229ZM34.375,547.9h0L0,539.695a26.772,26.772,0,0,1,.362-4.108l32.484,7.749a28.574,28.574,0,0,0,1.529,4.557Zm-2.214-8.92h0L1.331,531.62a30.239,30.239,0,0,1,2.322-5.31l28.731,6.854a26.639,26.639,0,0,0-.291,3.914c0,.636.023,1.274.068,1.9Zm3.632-15.632-25.1-5.989a50.591,50.591,0,0,1,7.168-5.647,63.022,63.022,0,0,1,9.025-4.881,75.415,75.415,0,0,1,10.358-3.685,85.587,85.587,0,0,1,11.446-2.329A92.847,92.847,0,0,1,60.978,500c2.686,0,5.385.115,8.022.343-15.369,4.333-27.472,12.715-33.206,23h0Z" transform="translate(0 -500)"/>
</svg>
