<svg xmlns="http://www.w3.org/2000/svg" width="171.557" height="71.001" viewBox="0 0 171.557 71.001">
  <defs>
    <style>
      .cls-1 {
        fill: #fff;
      }
    </style>
  </defs>
  <path id="Subtraction_55" data-name="Subtraction 55" class="cls-1" d="M60.187,571.454l-38.267-.668c-1.606-.892-3.163-1.85-4.63-2.848a50.284,50.284,0,0,1-7.341-6.044,38.955,38.955,0,0,1-5.5-6.887c-.087-.14-.183-.3-.287-.472L50.92,566.558a65.631,65.631,0,0,0,9.267,4.894ZM162.32,571.4a19.647,19.647,0,0,1-3.618-.322,10.933,10.933,0,0,1-2.973-.967v-5.156a9.934,9.934,0,0,0,3.046,1.764,9.824,9.824,0,0,0,3.319.589,7.411,7.411,0,0,0,1.716-.177,4.024,4.024,0,0,0,1.224-.491,2.152,2.152,0,0,0,.734-.742,1.856,1.856,0,0,0,.242-.926,2.015,2.015,0,0,0-.387-1.209,4.176,4.176,0,0,0-1.056-.983,11.158,11.158,0,0,0-1.587-.87c-.6-.275-1.27-.562-1.982-.854a10.15,10.15,0,0,1-4.036-2.755,6.043,6.043,0,0,1-1.329-3.932,6.292,6.292,0,0,1,.725-3.1,6.171,6.171,0,0,1,1.975-2.135,8.877,8.877,0,0,1,2.892-1.233,14.954,14.954,0,0,1,3.48-.4,21.038,21.038,0,0,1,3.2.218,12.631,12.631,0,0,1,2.57.669v4.818a7.849,7.849,0,0,0-1.265-.709A10.118,10.118,0,0,0,167.8,552a10.759,10.759,0,0,0-1.442-.3,10.369,10.369,0,0,0-1.362-.1,7.152,7.152,0,0,0-1.612.169,4.14,4.14,0,0,0-1.224.475,2.375,2.375,0,0,0-.774.734,1.743,1.743,0,0,0-.274.958,1.837,1.837,0,0,0,.306,1.039,3.523,3.523,0,0,0,.87.869,9.276,9.276,0,0,0,1.37.806c.526.258,1.139.532,1.821.814a20.4,20.4,0,0,1,2.489,1.232,8.922,8.922,0,0,1,1.894,1.475,5.768,5.768,0,0,1,1.208,1.877,7.491,7.491,0,0,1-.314,5.7,5.981,5.981,0,0,1-1.99,2.128,8.69,8.69,0,0,1-2.924,1.168A17.029,17.029,0,0,1,162.32,571.4Zm-21.737-.4h-5.2V547.894h5.2v10.925h.08c.128-.3.346-.734.644-1.29l6.381-9.635h6.2l-8.057,11.021L154.585,571l-6.573,0-6.736-10.039a9.654,9.654,0,0,1-.612-1.273h-.08V571Zm-52.4,0h-5.2V547.894h8.25c2.79,0,4.913.529,6.308,1.571a5.53,5.53,0,0,1,2.1,4.713,6.551,6.551,0,0,1-.37,2.232,6.248,6.248,0,0,1-1.048,1.845,6.669,6.669,0,0,1-1.635,1.418,8.495,8.495,0,0,1-2.136.934v.065a3.329,3.329,0,0,1,1,.524,7.14,7.14,0,0,1,.934.845,12.106,12.106,0,0,1,.862,1.039c.277.375.529.741.749,1.088l4.079,6.381,11.454-22.656h17.628v4.238h-8.121v5.14h7.556v4.222h-7.556v5.285h8.636V571H117.848v-5.14h-7.59L107.889,571h-11.5l-3.594-5.946c-.268-.45-.528-.856-.773-1.208a6.766,6.766,0,0,0-.749-.911,3,3,0,0,0-.79-.58,2,2,0,0,0-.894-.2h-1.4V571Zm28.408-18.869-4.544,9.733h5.8v-9.733h-1.257Zm-28.408-.338v6.429h2.255a3.757,3.757,0,0,0,2.691-.966,3.239,3.239,0,0,0,1.031-2.433c0-2.01-1.22-3.029-3.625-3.029H88.183ZM73.278,571H68.057V552.132H61.5v-4.238H79.869v4.238H73.278V571Zm-29.523-9.891L2.066,550.391a29.256,29.256,0,0,1-1.042-2.948,27.545,27.545,0,0,1-.866-4.078l36.515,9.388a40.51,40.51,0,0,0,7.084,8.354Zm-9.6-13.217h0l-34.226-8.8a26.86,26.86,0,0,1,.434-4.1l32.344,8.315a28.554,28.554,0,0,0,1.45,4.584ZM32.1,538.934h0L1.4,531.042a30.265,30.265,0,0,1,2.414-5.269l28.606,7.355a26.608,26.608,0,0,0-.358,3.909c-.012.618,0,1.256.035,1.9Zm3.9-15.566h0l-24.992-6.425a50.585,50.585,0,0,1,7.266-5.522,63.088,63.088,0,0,1,9.108-4.722,75.481,75.481,0,0,1,10.421-3.5,85.652,85.652,0,0,1,11.486-2.129,92.686,92.686,0,0,1,10.665-.612c.543,0,1.093,0,1.636.014,2.68.047,5.376.209,8.014.483C54.167,505.014,41.919,513.184,36.005,523.368Z" transform="translate(0.068 -500.453)"/>
</svg>
